# xmcd CD database file
#
# Track frame offsets:
#	150
#	19988
#	42067
#	63323
#	82595
#	101384
#	120902
#	141583
#	160317
#	183725
#
# Disc length: 2669 seconds
#
# Revision: 1
# Processed by: cddbd v1.5.2PL0 Copyright (c) Steve Scherf et al.
# Submitted via: CDex 1.70beta2
#
DISCID=7a0a6b0a
DTITLE=松田聖子 - Seiko･Celebration Disc2
DYEAR=1900
DGENRE=
TTITLE0=大切なあなた(カラオケ)
TTITLE1=輝いた季節へ旅立とう(カラオケ)
TTITLE2=Paradise(カラオケ)
TTITLE3=あなたのすべてになりたい(カラオケ)
TTITLE4=Forever Love(カラオケ)
TTITLE5=未来の花嫁(カラオケ)
TTITLE6=さざなみウェディングロード(カラオケ)
TTITLE7=Only My Love(カラオケ)
TTITLE8=Angel Tears(カラオケ)
TTITLE9=赤いスイートピー(カラオケ)
EXTD=
EXTT0=
EXTT1=
EXTT2=
EXTT3=
EXTT4=
EXTT5=
EXTT6=
EXTT7=
EXTT8=
EXTT9=
PLAYORDER=
